# xmcd
# 
# Track frame offsets:
#     150
#     23781
#     45122
#     65901
#     85669
#     103409
#     123519
#     146688
#     166832
#     188310
#     211792
#     230488
# 
# Disc length: 3398
# 
# Revision: 3
# Processed by: cddbd v1.5.2PL0 Copyright (c) Steve Scherf et al.
# Submitted via: fre:ac v1.0.31
# 
DISCID=990d440c
DTITLE=Moby - Everything Was Beautiful, And Nothing Hurt
DYEAR=2018
DGENRE=Rock/Pop
TTITLE0=Mere Anarchy
TTITLE1=The Waste Of Suns
TTITLE2=Like A Motherless Child
TTITLE3=The Last Of Goodbyes
TTITLE4=The Ceremony Of Innocence
TTITLE5=The Tired and The Hurt
TTITLE6=Welcome To Hard Times
TTITLE7=The Sorrow Tree
TTITLE8=Falling Rain and Light
TTITLE9=The Middle Is Gone
TTITLE10=This Wild Darkness
TTITLE11=A Dark Cloud Is Coming
EXTD=Release-Date: 09.03.2018\n\nMARO\n
EXTT0=
EXTT1=
EXTT2=
EXTT3=
EXTT4=
EXTT5=
EXTT6=
EXTT7=
EXTT8=
EXTT9=
EXTT10=
EXTT11=
PLAYORDER=
